<svg width="110" height="110" viewBox="0 0 110 110" fill="none" xmlns="http://www.w3.org/2000/svg">
<path d="M86.4445 25.6223C83.7526 19.5274 79.3474 14.3462 73.7648 10.709C68.1822 7.07184 61.6629 5.13546 55 5.13546C48.3371 5.13546 41.8178 7.07184 36.2352 10.709C30.6526 14.3462 26.2474 19.5274 23.5555 25.6223C18.0633 28.3035 13.4301 32.4667 10.1789 37.6419C6.9277 42.8171 5.18801 48.7981 5.15625 54.9098C5.10898 72.527 19.3789 87.2008 36.9531 87.6477C41.3601 87.7669 45.7454 86.9907 49.8437 85.366V99.6875C49.8437 101.055 50.387 102.367 51.354 103.334C52.321 104.301 53.6325 104.844 55 104.844C56.3675 104.844 57.679 104.301 58.646 103.334C59.613 102.367 60.1562 101.055 60.1562 99.6875V85.366C63.9857 86.8834 68.0683 87.6606 72.1875 87.6562H73.0469C90.6383 87.2266 104.908 72.5227 104.844 54.9184C104.814 48.8053 103.075 42.8224 99.8234 37.6456C96.5721 32.4687 91.938 28.3042 86.4445 25.6223ZM72.7676 77.3437C68.3046 77.4681 63.9084 76.2399 60.1562 73.8203V58.1883L77.9324 49.298C78.5479 49.0011 79.0983 48.5847 79.5514 48.0731C80.0046 47.5616 80.3515 46.965 80.5721 46.3182C80.7927 45.6713 80.8824 44.9871 80.8362 44.3053C80.79 43.6234 80.6087 42.9576 80.3028 42.3464C79.9969 41.7353 79.5726 41.191 79.0546 40.7453C78.5365 40.2996 77.935 39.9613 77.285 39.7502C76.6351 39.539 75.9496 39.4591 75.2685 39.5152C74.5874 39.5713 73.9242 39.7623 73.3176 40.077L60.1562 46.6555V37.8125C60.1562 36.445 59.613 35.1335 58.646 34.1665C57.679 33.1995 56.3675 32.6562 55 32.6562C53.6325 32.6562 52.321 33.1995 51.354 34.1665C50.387 35.1335 49.8437 36.445 49.8437 37.8125V56.968L36.6824 50.3895C35.4624 49.8008 34.0598 49.7159 32.7777 50.1531C31.4956 50.5903 30.437 51.5144 29.8307 52.7258C29.2245 53.9371 29.1193 55.3384 29.5379 56.6267C29.9564 57.915 30.8651 58.9868 32.0676 59.6105L49.8437 68.5008V73.8203C46.0924 76.2419 41.6956 77.4703 37.2324 77.3437C32.1856 77.2158 27.3309 75.3825 23.4593 72.1426C19.5876 68.9027 16.9273 64.4471 15.9118 59.5019C14.8962 54.5567 15.5853 49.4133 17.8667 44.9098C20.1482 40.4063 23.8875 36.8081 28.4754 34.7016C30.4267 33.8025 31.9704 32.2051 32.8023 30.2242C34.6337 25.8475 37.718 22.1098 41.6675 19.4811C45.6171 16.8523 50.2556 15.4498 55 15.4498C59.7444 15.4498 64.3829 16.8523 68.3325 19.4811C72.282 22.1098 75.3663 25.8475 77.1977 30.2242C78.0296 32.2051 79.5733 33.8025 81.5246 34.7016C86.1125 36.8081 89.8518 40.4063 92.1333 44.9098C94.4147 49.4133 95.1038 54.5567 94.0882 59.5019C93.0727 64.4471 90.4124 68.9027 86.5407 72.1426C82.6691 75.3825 77.8144 77.2158 72.7676 77.3437Z" fill="#F7FFE5"/>
</svg>
